<svg xmlns="http://www.w3.org/2000/svg" width="66" height="67" viewBox="0 0 66 67">
  <metadata><?xpacket begin="﻿" id="W5M0MpCehiHzreSzNTczkc9d"?>
<x:xmpmeta xmlns:x="adobe:ns:meta/" x:xmptk="Adobe XMP Core 5.6-c138 79.159824, 2016/09/14-01:09:01        ">
   <rdf:RDF xmlns:rdf="http://www.w3.org/1999/02/22-rdf-syntax-ns#">
      <rdf:Description rdf:about=""/>
   </rdf:RDF>
</x:xmpmeta>
                                                                                                    
                                                                                                    
                                                                                                    
                                                                                                    
                                                                                                    
                                                                                                    
                                                                                                    
                                                                                                    
                                                                                                    
                                                                                                    
                                                                                                    
                                                                                                    
                                                                                                    
                                                                                                    
                                                                                                    
                                                                                                    
                                                                                                    
                                                                                                    
                                                                                                    
                                                                                                    
                           
<?xpacket end="w"?></metadata>
<defs>
    <style>
      .cls-1 {
        fill: #43a06d;
        fill-rule: evenodd;
      }
    </style>
  </defs>
  <path class="cls-1" d="M645,3029.01c-18.237,0-33,15.03-33,33.52a33,33,0,1,0,66,0c0-18.49-14.772-33.52-33-33.52h0Zm14.8,20.31a3.31,3.31,0,0,1,2.322.97l2.973,3.02a3.313,3.313,0,0,1,0,4.64l-18.376,18.57-2.973,3.02a3.208,3.208,0,0,1-4.581,0l-2.973-3.02a2.721,2.721,0,0,1-.408-0.48l-9.282-9.35a3.315,3.315,0,0,1,0-4.64l2.973-3.01a3.178,3.178,0,0,1,4.581,0l7.432,7.53,16.054-16.28a3.151,3.151,0,0,1,2.258-.97h0Z" transform="translate(-612 -3029)"/>
</svg>
