<svg id="header" xmlns="http://www.w3.org/2000/svg" width="1280" height="774" viewBox="0 0 1280 774">
  <metadata><?xpacket begin="﻿" id="W5M0MpCehiHzreSzNTczkc9d"?>
<x:xmpmeta xmlns:x="adobe:ns:meta/" x:xmptk="Adobe XMP Core 5.6-c138 79.159824, 2016/09/14-01:09:01        ">
   <rdf:RDF xmlns:rdf="http://www.w3.org/1999/02/22-rdf-syntax-ns#">
      <rdf:Description rdf:about=""/>
   </rdf:RDF>
</x:xmpmeta>
                                                                                                    
                                                                                                    
                                                                                                    
                                                                                                    
                                                                                                    
                                                                                                    
                                                                                                    
                                                                                                    
                                                                                                    
                                                                                                    
                                                                                                    
                                                                                                    
                                                                                                    
                                                                                                    
                                                                                                    
                                                                                                    
                                                                                                    
                                                                                                    
                                                                                                    
                                                                                                    
                           
<?xpacket end="w"?></metadata>
<defs>
    <style>
      .cls-1 {
        fill: #fb636b;
      }

      .cls-1, .cls-10, .cls-3, .cls-5, .cls-8, .cls-9 {
        fill-rule: evenodd;
      }

      .cls-2, .cls-9 {
        fill: #404040;
      }

      .cls-3 {
        fill: #f74c55;
      }

      .cls-4, .cls-8 {
        fill: #ee732f;
      }

      .cls-5 {
        fill: #d05b8f;
      }

      .cls-6 {
        fill: #82a3ad;
      }

      .cls-10, .cls-7 {
        fill: #2d5f3b;
      }
    </style>
  </defs>
  <path id="Ellipse_1_copy_5" data-name="Ellipse 1 copy 5" class="cls-1" d="M178-188C418.244-188,613,6.756,613,247S418.244,682,178,682-257,487.244-257,247-62.244-188,178-188ZM584,91"/>
  <circle id="Ellipse_1_copy_5-2" data-name="Ellipse 1 copy 5" class="cls-2" cx="178" cy="191.234" r="358.531"/>
  <path id="Ellipse_1_copy_5-3" data-name="Ellipse 1 copy 5" class="cls-3" d="M178.8-140.2c144.762,0,262.115,117.353,262.115,262.115S323.559,384.033,178.8,384.033-83.319,266.68-83.319,121.917,34.034-140.2,178.8-140.2Z"/>
  <circle id="Ellipse_1_copy_5-4" data-name="Ellipse 1 copy 5" class="cls-4" cx="178.797" cy="75.719" r="192.016"/>
  <path id="Ellipse_1_copy_5-5" data-name="Ellipse 1 copy 5" class="cls-5" d="M178-101.956A135.44,135.44,0,1,1,42.56,33.483,135.44,135.44,0,0,1,178-101.956Z"/>
  <circle id="Ellipse_1_copy_4" data-name="Ellipse 1 copy 4" class="cls-6" cx="178" cy="88.672" r="232.406"/>
  <circle id="Ellipse_1_copy_3" data-name="Ellipse 1 copy 3" class="cls-7" cx="178" cy="58.875" r="191.531"/>
  <path id="Ellipse_1_copy_2" data-name="Ellipse 1 copy 2" class="cls-3" d="M178.426-118.2A140.035,140.035,0,1,1,38.391,21.839,140.035,140.035,0,0,1,178.426-118.2Z"/>
  <path id="Ellipse_1_copy" data-name="Ellipse 1 copy" class="cls-8" d="M178.426-105.427A102.579,102.579,0,0,1,281-2.848,102.578,102.578,0,0,1,178.426,99.73,102.578,102.578,0,0,1,75.847-2.848,102.579,102.579,0,0,1,178.426-105.427Z"/>
  <path id="Ellipse_1_copy_7" data-name="Ellipse 1 copy 7" class="cls-1" d="M1421.23,324.6c102.67,103.125,102.31,269.957-.82,372.63s-269.95,102.308-372.63-.816-102.3-269.957.82-372.63S1318.56,221.48,1421.23,324.6Z"/>
  <path id="Ellipse_1_copy_6" data-name="Ellipse 1 copy 6" class="cls-9" d="M1419.7,331.7c90.55,90.955,90.23,238.1-.72,328.658s-238.11,90.235-328.66-.72-90.24-238.1.72-328.659S1329.14,240.741,1419.7,331.7Z"/>
  <path id="Ellipse_1_copy_6-2" data-name="Ellipse 1 copy 6" class="cls-10" d="M1411.85,339.505c74.64,74.963,74.37,196.237-.59,270.872s-196.24,74.37-270.87-.593-74.37-196.237.59-270.873S1337.22,264.541,1411.85,339.505Z"/>
  <path id="Ellipse_1_copy_6-3" data-name="Ellipse 1 copy 6" class="cls-3" d="M1401.9,350.017a140.034,140.034,0,1,1-198.04-.434A140.037,140.037,0,0,1,1401.9,350.017Z"/>
  <path id="Ellipse_1_copy_6-4" data-name="Ellipse 1 copy 6" class="cls-8" d="M1392.85,359.026a102.58,102.58,0,1,1-145.07-.318A102.577,102.577,0,0,1,1392.85,359.026Z"/>
</svg>
